<?xml version="1.0" standalone="no"?><!DOCTYPE svg PUBLIC "-//W3C//DTD SVG 1.1//EN" "http://www.w3.org/Graphics/SVG/1.1/DTD/svg11.dtd"><svg t="1548672272903" class="icon" style="" viewBox="0 0 1024 1024" version="1.1" xmlns="http://www.w3.org/2000/svg" p-id="9066" xmlns:xlink="http://www.w3.org/1999/xlink" width="16" height="16"><defs><style type="text/css"></style></defs><path d="M512 62c-248.555 0-450 201.445-450 450s201.445 450 450 450c248.555 0 450-201.445 450-450 0-248.555-201.445-450-450-450v0zM770.135 395.281l-291.094 291.006c-13.447 13.447-33.838 15.557-49.482 6.328-2.901-1.67-5.625-3.779-8.086-6.328 0 0 0 0 0 0l-167.607-167.519c-15.908-15.908-15.908-41.661 0-57.568s41.661-15.908 57.568 0l138.867 138.692 262.266-262.266c15.908-15.908 41.66-15.908 57.568 0 15.908 15.996 15.908 41.748 0 57.656v0zM770.135 395.281z" p-id="9067" fill="#0e932e"></path></svg>