<?xml version="1.0" standalone="no"?><!DOCTYPE svg PUBLIC "-//W3C//DTD SVG 1.1//EN" "http://www.w3.org/Graphics/SVG/1.1/DTD/svg11.dtd"><svg t="1548672489869" class="icon" style="" viewBox="0 0 1024 1024" version="1.1" xmlns="http://www.w3.org/2000/svg" p-id="19063" xmlns:xlink="http://www.w3.org/1999/xlink" width="16" height="16"><defs><style type="text/css"></style></defs><path d="M510.853 67.451q91.765 0 173.333 35.176t141.725 95.843 95.333 141.725 35.176 172.824q0 92.784-35.176 173.843t-95.333 141.725-141.725 95.333-173.333 34.667q-92.784 0-173.843-34.667t-141.725-95.333-95.333-141.725-34.667-173.843q0-91.765 34.667-172.824t95.333-141.725 141.725-95.843 173.843-35.176zM507.795 189.804q-66.275 0-124.392 24.98t-101.451 68.314-68.314 101.451-24.98 124.392q0 50.98 14.275 95.333t40.784 83.098l442.51-441.49q-38.745-26.51-83.608-41.294t-94.824-14.784zM507.795 828.078q65.255 0 123.373-24.98t101.451-68.314 68.314-101.451 24.98-124.392q0-94.824-49.961-173.333l-441.49 441.49q38.745 24.471 81.569 37.725t91.765 13.255z" p-id="19064" fill="#d81e06"></path></svg>